<?xml version="1.0" encoding="UTF-8"?>
<svg width="323px" height="89px" viewBox="0 0 323 89" version="1.1" xmlns="http://www.w3.org/2000/svg" xmlns:xlink="http://www.w3.org/1999/xlink">
    <!-- Generator: Sketch 48.2 (47327) - http://www.bohemiancoding.com/sketch -->
    <title>blue label logo</title>
    <desc>Created with Sketch.</desc>
    <defs></defs>
    <g id="Desktop-HD" stroke="none" stroke-width="1" fill="none" fill-rule="evenodd" transform="translate(-99.000000, -57.000000)">
        <g id="header" transform="translate(-64.000000, -21.000000)">
            <g id="blue-label-logo" transform="translate(129.000000, 62.000000)">
                <path d="M41.133469,15.6815193 L19.868081,15.6815193 C17.658942,15.6815193 15.868081,17.4723803 15.868081,19.6815193 L15.868081,40.9469074 C15.868081,42.0077733 16.2895084,43.025189 17.0396539,43.7753345 L63.0381038,89.7737845 C64.600201,91.3358816 67.1328609,91.3358816 68.6949581,89.7737845 L89.9603461,68.5083964 C91.5224433,66.9462993 91.5224433,64.4136394 89.9603461,62.8515422 L43.9618962,16.8530922 C43.2117506,16.1029467 42.194335,15.6815193 41.133469,15.6815193 Z M28.6184072,34.6022503 C25.2099931,34.6022503 22.4480024,31.8402596 22.4480024,28.4318455 C22.4480024,25.0234314 25.2099931,22.2614407 28.6184072,22.2614407 C32.0268212,22.2614407 34.788812,25.0234314 34.788812,28.4318455 C34.788812,31.8402596 32.0268212,34.6022503 28.6184072,34.6022503 Z" id="label" fill="#4A90E2" fill-rule="nonzero" transform="translate(53.500000, 53.313438) rotate(-135.000000) translate(-53.500000, -53.313438) "></path>
                <path d="M41.4185567,22.2366522 C44.5278506,22.1577678 47.1687177,22.0986053 49.3412371,22.0591631 C51.5137566,22.0197208 53.2377943,22 54.5134021,22 C58.858441,22 62.2068611,22.9170182 64.5587629,24.7510823 C66.9106647,26.5851463 68.0865979,29.2375969 68.0865979,32.7085137 C68.0865979,34.5228566 67.5883211,36.1794057 66.5917526,37.6782107 C65.595184,39.1770157 64.2598022,40.2616609 62.585567,40.9321789 C63.5821356,41.2477168 64.538827,41.730877 65.4556701,42.3816739 C66.3725132,43.0324708 67.1697561,43.8213037 67.8474227,44.7481962 C68.5250893,45.6750888 69.0532627,46.6907112 69.4319588,47.7950938 C69.8106548,48.8994764 70,50.0432841 70,51.2265512 C70,55.0130059 68.7443425,57.9218273 66.2329897,59.9531025 C63.7216369,61.9843776 60.1141129,63 55.4103093,63 C53.9353878,63 52.041936,62.9802792 49.7298969,62.9408369 C47.4178579,62.9013947 44.6474388,62.8422322 41.4185567,62.7633478 L41,62.4083694 L41,22.5916306 L41.4185567,22.2366522 Z M54.8123711,44.4227994 L48.9525773,44.4227994 L48.9525773,57.3203463 C49.7099694,57.2809041 50.5670055,57.2710437 51.5237113,57.2907648 C52.4804172,57.3104859 53.4371086,57.3006255 54.3938144,57.2611833 C55.3505202,57.221741 56.2773151,57.1329973 57.1742268,56.9949495 C58.0711385,56.8569017 58.8683814,56.5315081 59.5659794,56.018759 C60.2635774,55.5060099 60.8216474,54.835502 61.2402062,54.007215 C61.658765,53.178928 61.8680412,52.1140036 61.8680412,50.8124098 C61.8680412,49.9841228 61.7285237,49.1854295 61.4494845,48.4163059 C61.1704453,47.6471823 60.7518928,46.9668139 60.1938144,46.3751804 C59.635736,45.7835468 58.9082519,45.3102471 58.0113402,44.955267 C57.1144285,44.6002868 56.0481161,44.4227994 54.8123711,44.4227994 Z M48.9525773,27.7388167 L48.9525773,38.5656566 L54.1546392,38.5656566 C58.1409134,38.5656566 60.1340206,36.7513409 60.1340206,33.1226551 C60.1340206,31.6238501 59.8450201,30.4997632 59.2670103,29.7503608 C58.6890005,29.0009583 57.8817921,28.4882169 56.8453608,28.2121212 C55.8089295,27.9360256 54.6030997,27.8078402 53.2278351,27.8275613 C51.8525704,27.8472824 50.4274988,27.8177012 48.9525773,27.7388167 Z" id="B" fill="#FFFFFF"></path>
                <path d="M92.3818956,56.3527738 L103.395314,56.3527738 C103.395314,57.5476589 103.316366,58.563296 103.158466,59.3997155 C102.724243,61.9886331 101.007115,63.2830725 98.0070288,63.2830725 L83.6185304,63.2830725 C82.197437,63.2830725 81.0724216,62.8549118 80.2434505,61.9985775 C79.4144793,61.1422432 79,59.9772478 79,58.5035562 L79,22.4182077 L79.4144835,22 L82.3750799,22 C83.9540725,22 85.1185621,22.4082463 85.8685836,23.2247511 C86.6186051,24.0412559 86.9936102,25.3456525 86.9936102,27.1379801 L86.9936102,56.5917496 C88.6910273,56.4324316 90.4871045,56.3527738 92.3818956,56.3527738 Z M139.100106,22.3584637 L139.100106,48.4665718 C139.100106,53.4452596 137.748114,57.2787917 135.044089,59.9672831 C132.340065,62.6557745 128.520933,64 123.586581,64 C118.691704,64 114.89231,62.6557745 112.188285,59.9672831 C109.484261,57.2787917 108.132268,53.4452596 108.132268,48.4665718 L108.132268,22.4182077 L108.48754,22 L111.448136,22 C113.027129,22 114.191619,22.4082463 114.94164,23.2247511 C115.691662,24.0412559 116.066667,25.3456525 116.066667,27.1379801 L116.066667,48.5263158 C116.066667,54.5804001 118.57328,57.6073969 123.586581,57.6073969 C128.639358,57.6073969 131.165708,54.5804001 131.165708,48.5263158 L131.165708,22.3584637 C132.271003,22.1593162 133.59339,22.059744 135.132907,22.059744 C136.672425,22.059744 137.994812,22.1593162 139.100106,22.3584637 Z M156.212354,52.9473684 L156.153142,56.6514936 L160.297977,56.5320057 L174.804899,56.5320057 C174.804899,57.8065498 174.745687,58.7823579 174.627263,59.4594595 C174.19304,62.0085476 172.495648,63.2830725 169.535037,63.2830725 L152.896486,63.2830725 C151.475392,63.2830725 150.360245,62.8549118 149.551012,61.9985775 C148.741778,61.1422432 148.337167,59.9772478 148.337167,58.5035562 L148.337167,22.7766714 L148.751651,22.3584637 L173.443024,22.3584637 C173.640399,23.3542013 173.739084,24.4196245 173.739084,25.5547653 C173.739084,26.6899061 173.521976,27.874816 173.087753,29.1095306 L156.153142,29.1095306 L156.212354,33.2318634 L156.212354,39.3854908 L160.061129,39.3257468 L170.067945,39.3257468 C170.383743,40.2418253 170.54164,41.3371202 170.54164,42.6116643 C170.54164,43.8862084 170.383743,44.9815032 170.067945,45.8975818 L156.212354,45.8975818 L156.212354,52.9473684 Z M208.496486,56.3527738 L219.509904,56.3527738 C219.509904,57.5476589 219.430956,58.563296 219.273056,59.3997155 C218.838833,61.9886331 217.121705,63.2830725 214.121619,63.2830725 L199.73312,63.2830725 C198.312027,63.2830725 197.187012,62.8549118 196.35804,61.9985775 C195.529069,61.1422432 195.11459,59.9772478 195.11459,58.5035562 L195.11459,22.4182077 L195.529073,22 L198.48967,22 C200.068662,22 201.233152,22.4082463 201.983174,23.2247511 C202.733195,24.0412559 203.1082,25.3456525 203.1082,27.1379801 L203.1082,56.5917496 C204.805617,56.4324316 206.601694,56.3527738 208.496486,56.3527738 Z M246.09606,53.9032717 L243.194675,53.9630156 L234.905005,53.9630156 L232.003621,53.9032717 L229.22066,63.2233286 C228.391689,63.4224761 227.217331,63.5220484 225.697551,63.5220484 C224.17777,63.5220484 222.944201,63.3428183 221.996805,62.9843528 L221.700745,62.5661451 L234.905005,22.3584637 C236.365574,22.1593162 237.944542,22.059744 239.64196,22.059744 C241.339377,22.059744 242.81966,22.1792307 244.082854,22.4182077 L257.050266,62.625889 C255.905497,63.3029906 254.533767,63.6415363 252.935037,63.6415363 C251.336307,63.6415363 250.191555,63.3428195 249.500745,62.745377 C248.809936,62.1479344 248.227691,61.0128106 247.753994,59.3399716 L246.09606,53.9032717 Z M233.957614,47.5704125 L236.622151,47.5106686 L241.714377,47.5106686 L244.201278,47.5704125 L242.42492,41.4765292 C241.082776,36.9359659 240.016972,33.0725622 239.227476,29.886202 L238.872204,29.886202 C238.516931,31.5988706 237.648498,34.964413 236.26688,39.9829303 L233.957614,47.5704125 Z M263.208307,22.2987198 C266.287342,22.2190608 268.90251,22.1593174 271.053887,22.1194879 C273.205265,22.0796584 274.912525,22.059744 276.175719,22.059744 C280.478474,22.059744 283.794309,22.985766 286.123323,24.8378378 C288.452337,26.6899097 289.616826,29.3684035 289.616826,32.8733997 C289.616826,34.7055568 289.123399,36.3783708 288.136528,37.8918919 C287.149658,39.405413 285.827271,40.5007079 284.169329,41.1778094 C285.156199,41.4964454 286.103581,41.9843495 287.011502,42.6415363 C287.919422,43.2987231 288.708907,44.0953012 289.379979,45.0312945 C290.051051,45.9672878 290.574084,46.992882 290.949095,48.1081081 C291.324106,49.2233342 291.511608,50.3783724 291.511608,51.5732575 C291.511608,55.3968897 290.26817,58.3342714 287.781257,60.3854908 C285.294343,62.4367101 281.721926,63.4623044 277.063898,63.4623044 C275.60333,63.4623044 273.728304,63.44239 271.438765,63.4025605 C269.149225,63.362731 266.405767,63.3029876 263.208307,63.2233286 L262.793823,62.8648649 L262.793823,22.6571835 L263.208307,22.2987198 Z M276.471778,44.7027027 L270.66901,44.7027027 L270.66901,57.7268848 C271.419031,57.6870553 272.267727,57.6770981 273.215122,57.6970128 C274.162518,57.7169276 275.109899,57.7069703 276.057295,57.6671408 C277.004691,57.6273113 277.922466,57.5376963 278.81065,57.398293 C279.698833,57.2588898 280.488317,56.9303013 281.179127,56.4125178 C281.869936,55.8947343 282.422575,55.2176429 282.837061,54.3812233 C283.251546,53.5448038 283.458786,52.4694234 283.458786,51.1550498 C283.458786,50.3186302 283.320626,49.5120949 283.044302,48.7354196 C282.767979,47.9587443 282.353499,47.2716957 281.800852,46.6742532 C281.248205,46.0768107 280.5278,45.5988638 279.639617,45.2403983 C278.751433,44.8819328 277.695498,44.7027027 276.471778,44.7027027 Z M270.66901,27.8549075 L270.66901,38.7880512 L275.820447,38.7880512 C279.767929,38.7880512 281.74164,36.9559216 281.74164,33.2916074 C281.74164,31.7780863 281.455452,30.6429625 280.883067,29.886202 C280.310682,29.1294415 279.511329,28.6116657 278.484984,28.3328592 C277.458639,28.0540527 276.264544,27.9246087 274.902662,27.9445235 C273.540781,27.9644382 272.129578,27.9345665 270.66901,27.8549075 Z M306.729073,52.9473684 L306.669862,56.6514936 L310.814696,56.5320057 L325.321619,56.5320057 C325.321619,57.8065498 325.262407,58.7823579 325.143983,59.4594595 C324.70976,62.0085476 323.012368,63.2830725 320.051757,63.2830725 L303.413206,63.2830725 C301.992112,63.2830725 300.876965,62.8549118 300.067732,61.9985775 C299.258498,61.1422432 298.853887,59.9772478 298.853887,58.5035562 L298.853887,22.7766714 L299.268371,22.3584637 L323.959744,22.3584637 C324.157118,23.3542013 324.255804,24.4196245 324.255804,25.5547653 C324.255804,26.6899061 324.038696,27.874816 323.604473,29.1095306 L306.669862,29.1095306 L306.729073,33.2318634 L306.729073,39.3854908 L310.577849,39.3257468 L320.584665,39.3257468 C320.900463,40.2418253 321.05836,41.3371202 321.05836,42.6116643 C321.05836,43.8862084 320.900463,44.9815032 320.584665,45.8975818 L306.729073,45.8975818 L306.729073,52.9473684 Z M345.986581,56.3527738 L357,56.3527738 C357,57.5476589 356.921052,58.563296 356.763152,59.3997155 C356.328929,61.9886331 354.611801,63.2830725 351.611715,63.2830725 L337.223216,63.2830725 C335.802123,63.2830725 334.677107,62.8549118 333.848136,61.9985775 C333.019165,61.1422432 332.604686,59.9772478 332.604686,58.5035562 L332.604686,22.4182077 L333.019169,22 L335.979766,22 C337.558758,22 338.723248,22.4082463 339.473269,23.2247511 C340.223291,24.0412559 340.598296,25.3456525 340.598296,27.1379801 L340.598296,56.5917496 C342.295713,56.4324316 344.09179,56.3527738 345.986581,56.3527738 Z" id="lue-Label" fill="#87BBFD"></path>
            </g>
        </g>
    </g>
</svg>