<?xml version="1.0" encoding="utf-8"?>
<!-- Generator: Adobe Illustrator 22.0.1, SVG Export Plug-In . SVG Version: 6.00 Build 0)  -->
<svg version="1.1" id="Layer_1" xmlns="http://www.w3.org/2000/svg" xmlns:xlink="http://www.w3.org/1999/xlink" x="0px" y="0px"
	 viewBox="0 0 841.9 595.3" style="enable-background:new 0 0 841.9 595.3;" xml:space="preserve">
<style type="text/css">
	.st0{fill:#77C1DD;}
	.st1{fill:#0787A8;}
	.st2{fill:#014A6C;}
	.st3{fill:#0485A8;}
</style>
<path class="st0" d="M242.3,179.4c0,0,0-1.3-0.3-3.5c-0.3-33.3-27.4-60.1-60.8-60.1c-33,0-60.2,26-61,58.8c-0.1,2.9,0,115.4,0,115.4
	l121.7,1L242.3,179.4z"/>
<path class="st1" d="M218.2,252.9c-5.3-1.7-10.8-3.1-16.6-4.3c-41.4-8.4-81.5-28.4-81.5-74.1v156.1c0,0.4,0,0.8,0,1.3
	c0,0.4,0,0.8,0,1.2c0,45.2,36.7,81.9,81.9,81.9s81.9-36.7,81.9-81.9C283.9,293.5,255.7,260.4,218.2,252.9z"/>
<path class="st2" d="M360.5,206.9v-17.5c0-27-15.3-42.5-42-42.5c-6.1,0-12.2,1.1-18,3.1v-25.8c0-4.8-3.7-8.5-8.5-8.5h-3.3
	c-4.8,0-8.5,3.7-8.5,8.5v110.7c0,3.6,2.2,6.9,5.6,8.2c9.9,4,21.4,6.2,32.5,6.2C345.1,249.3,360.5,233.8,360.5,206.9z M340,206.9
	c0,16-6.3,22.6-21.8,22.6c-6.9,0-13-1.1-17.8-2.4v-55.7c5.5-2.9,11.7-4.5,17.8-4.5c15.5,0,21.8,6.5,21.8,22.6V206.9z M410.5,249.3
	c3,0,7.4-0.4,10.4-0.7l0.5-0.1l0.5-0.1c4-1,6.7-4.5,6.7-8.6V237c0-4.8-3.7-8.3-8.5-8.3h-0.6l-0.6,0.1c-2.8,0.4-6.2,0.6-8.2,0.6
	c-3.1,0-8.2,0-8.2-14.1v-91.1c0-4.8-3.7-8.5-8.5-8.5h-3.3c-4.8,0-8.5,3.7-8.5,8.5v90.6C382.2,245.9,402,249.3,410.5,249.3z
	 M518.5,234.2v-77c0-4.9-3.7-8.7-8.5-8.7h-3.1c-4.8,0-8.7,3.9-8.7,8.7v69.6c-5.9,1.8-11.6,2.7-17.2,2.7c-14.7,0-21.3-6.4-21.3-20.8
	v-51.5c0-4.9-3.7-8.7-8.5-8.7H448c-4.8,0-8.5,3.8-8.5,8.7v51.5c0,25.4,15.5,40.6,41.5,40.6c11.2,0,22.2-2.3,31.9-6.7
	C516.3,241.3,518.5,238,518.5,234.2z M616.5,229.8c0.4-2.5-0.4-5-2.2-7l-1.5-1.8c-2.7-3.5-7.6-4.3-11.4-1.7l-0.4,0.3l-0.4,0.4
	c-7.4,6.6-14.4,9.5-22.8,9.5c-9.9,0-20-5.4-20-17.5v-3.3h51.4c4.8,0,8.5-3.7,8.5-8.5v-14.7c0-23.1-16.1-38.6-40.1-38.6
	s-40.1,15.5-40.1,38.6V212c0,11,4.4,20.8,12.5,27.7c7.3,6.2,17.1,9.6,27.6,9.6c13.3,0,25.2-4.8,35.6-14.2
	C615,233.8,616.2,232,616.5,229.8z M557.9,185.5c0-8.5,3.4-18.6,19.8-18.6c7.4,0,19.8,2.4,19.8,18.6v3.6h-39.6V185.5z M359.1,393.3
	h-0.6l-0.6,0.1c-2.8,0.4-6.2,0.6-8.2,0.6c-3.1,0-8.2,0-8.2-14.1v-91.1c0-4.8-3.7-8.5-8.5-8.5h-3.3c-4.8,0-8.5,3.7-8.5,8.5v90.6
	c0,31.1,19.8,34.5,28.3,34.5c3,0,7.4-0.4,10.4-0.7l0.5-0.1l0.5-0.1c4-1,6.7-4.5,6.7-8.6v-2.8C367.6,396.9,364,393.3,359.1,393.3z
	 M422.4,311.5c-12.5,0-24.8,3.5-33.6,9.7l-0.5,0.4l-0.5,0.5c-1.4,1.4-3.4,4.3-1.8,9l0.3,0.9l2.4,3.8l0.6,0.6
	c2.7,2.7,6.7,3.3,10.2,1.6l0.7-0.4c4.6-2.9,12.9-6,22.2-6c12.5,0,17.5,4.8,17.7,17.2c-6.2-1-12.1-1.5-17.7-1.5
	c-25.3,0-41.1,12.7-41.1,33c0,20.2,16.5,33.7,41.1,33.7c15.7,0,27.6-4.2,32.3-6.2c3.4-1.2,5.7-4.5,5.7-8.2v-50.4
	C460.2,325.6,446.1,311.5,422.4,311.5z M439.9,391.6c-5.7,1.6-11.6,2.5-17.7,2.5c-9.6,0-20.8-3.6-20.8-13.9c0-3.3,0-13.2,20.8-13.2
	c5.4,0,11.7,0.6,17.7,1.6V391.6z M524.5,311.5c-6.1,0-12.2,1.1-18,3.1v-25.8c0-4.8-3.7-8.5-8.5-8.5h-3.3c-4.8,0-8.5,3.7-8.5,8.5
	v110.7c0,3.6,2.2,6.9,5.6,8.2c9.9,4,21.4,6.2,32.5,6.2c26.8,0,42.2-15.4,42.2-42.4V354C566.5,327,551.2,311.5,524.5,311.5z
	 M546.1,371.5c0,16-6.3,22.6-21.8,22.6c-6.9,0-13-1.1-17.8-2.4V336c5.5-2.9,11.7-4.5,17.8-4.5c15.5,0,21.8,6.5,21.8,22.6V371.5z
	 M628.3,311.5c-24,0-40.1,15.5-40.1,38.6v26.5c0,11,4.4,20.8,12.5,27.7c7.3,6.2,17.1,9.6,27.6,9.6c13.3,0,25.2-4.8,35.6-14.2
	c1.8-1.3,3-3.2,3.3-5.3c0.4-2.5-0.4-5-2.2-7l-1.5-1.8c-2.7-3.5-7.6-4.3-11.4-1.7l-0.4,0.3l-0.4,0.4c-7.4,6.6-14.4,9.5-22.8,9.5
	c-9.9,0-20-5.4-20-17.5v-3.3h51.4c4.8,0,8.5-3.7,8.5-8.5v-14.7C668.4,327,652.3,311.5,628.3,311.5z M648.1,353.7h-39.6v-3.6
	c0-8.5,3.4-18.6,19.8-18.6c7.4,0,19.8,2.4,19.8,18.6V353.7z M730.2,393.3h-0.6l-0.6,0.1c-2.8,0.4-6.2,0.6-8.2,0.6
	c-3.1,0-8.2,0-8.2-14.1v-91.1c0-4.8-3.7-8.5-8.5-8.5H701c-4.8,0-8.5,3.7-8.5,8.5v90.6c0,31.1,19.8,34.5,28.3,34.5
	c3,0,7.4-0.4,10.4-0.7l0.5-0.1l0.5-0.1c4-1,6.7-4.5,6.7-8.6v-2.8C738.7,396.9,735.1,393.3,730.2,393.3z"/>
<g>
	<g>
		<path class="st3" d="M120.2,444.4c2.4-0.4,5.4-0.6,8.5-0.6c5.8,0,9.9,1.3,12.6,3.9c2.8,2.5,4.4,6.1,4.4,11.1c0,5-1.6,9.2-4.5,12
			c-2.9,2.9-7.7,4.4-13.7,4.4c-2.9,0-5.3-0.1-7.3-0.4V444.4z M124.2,471.7c1,0.2,2.5,0.2,4.1,0.2c8.6,0,13.2-4.8,13.2-13.1
			c0-7.3-4.1-11.9-12.6-11.9c-2.1,0-3.6,0.2-4.7,0.4V471.7z"/>
		<path class="st3" d="M155.8,464.5c0.1,5.5,3.6,7.7,7.7,7.7c2.9,0,4.7-0.5,6.2-1.1l0.7,2.9c-1.4,0.6-3.9,1.4-7.4,1.4
			c-6.9,0-11-4.5-11-11.2c0-6.7,4-12,10.5-12c7.3,0,9.2,6.4,9.2,10.5c0,0.8-0.1,1.5-0.1,1.9H155.8z M167.7,461.6
			c0-2.6-1.1-6.6-5.6-6.6c-4.1,0-5.9,3.8-6.2,6.6H167.7z"/>
		<path class="st3" d="M193.1,452.7l3,11.3c0.6,2.5,1.2,4.8,1.7,7.1h0.1c0.5-2.2,1.2-4.6,2-7l3.6-11.3h3.4l3.5,11.1
			c0.8,2.7,1.5,5,2,7.2h0.1c0.4-2.2,1-4.6,1.7-7.2l3.2-11.1h4l-7.2,22.2h-3.7l-3.4-10.6c-0.8-2.5-1.4-4.7-2-7.3H205
			c-0.6,2.7-1.2,5-2,7.3l-3.6,10.5h-3.7l-6.7-22.2H193.1z"/>
		<path class="st3" d="M240.1,474.9l-0.3-2.8h-0.1c-1.2,1.7-3.6,3.3-6.8,3.3c-4.5,0-6.8-3.2-6.8-6.4c0-5.4,4.8-8.3,13.4-8.3v-0.5
			c0-1.8-0.5-5.1-5.1-5.1c-2.1,0-4.2,0.6-5.8,1.7l-0.9-2.7c1.8-1.2,4.5-2,7.3-2c6.8,0,8.5,4.6,8.5,9.1v8.3c0,1.9,0.1,3.8,0.4,5.3
			H240.1z M239.5,463.6c-4.4-0.1-9.5,0.7-9.5,5c0,2.6,1.8,3.9,3.8,3.9c2.9,0,4.8-1.8,5.4-3.7c0.1-0.4,0.2-0.9,0.2-1.3V463.6z"/>
		<path class="st3" d="M257.2,446.3v6.4h5.8v3.1h-5.8v12c0,2.8,0.8,4.3,3,4.3c1.1,0,1.8-0.1,2.4-0.3l0.2,3c-0.8,0.3-2,0.6-3.6,0.6
			c-1.9,0-3.4-0.6-4.4-1.7c-1.2-1.2-1.6-3.2-1.6-5.8v-12.1h-3.5v-3.1h3.5v-5.3L257.2,446.3z"/>
		<path class="st3" d="M272.1,464.5c0.1,5.5,3.6,7.7,7.7,7.7c2.9,0,4.7-0.5,6.2-1.1l0.7,2.9c-1.4,0.6-3.9,1.4-7.4,1.4
			c-6.9,0-11-4.5-11-11.2c0-6.7,4-12,10.5-12c7.3,0,9.2,6.4,9.2,10.5c0,0.8-0.1,1.5-0.1,1.9H272.1z M284,461.6
			c0-2.6-1.1-6.6-5.6-6.6c-4.1,0-5.9,3.8-6.2,6.6H284z"/>
		<path class="st3" d="M295.5,459.6c0-2.6,0-4.9-0.2-6.9h3.6l0.1,4.4h0.2c1-3,3.5-4.9,6.2-4.9c0.5,0,0.8,0,1.2,0.1v3.8
			c-0.4-0.1-0.8-0.1-1.4-0.1c-2.9,0-4.9,2.2-5.4,5.2c-0.1,0.5-0.2,1.2-0.2,1.9v11.8h-4V459.6z"/>
		<path class="st3" d="M317.3,462.9L317.3,462.9c0.6-0.8,1.4-1.7,2.1-2.5l6.6-7.7h4.9l-8.6,9.1l9.8,13.1h-4.9l-7.7-10.6l-2.1,2.3
			v8.3h-4v-32.6h4V462.9z"/>
		<path class="st3" d="M339.7,452.7l3,11.3c0.6,2.5,1.2,4.8,1.7,7.1h0.1c0.5-2.2,1.2-4.6,2-7l3.6-11.3h3.4l3.5,11.1
			c0.8,2.7,1.5,5,2,7.2h0.1c0.4-2.2,1-4.6,1.7-7.2l3.2-11.1h4l-7.2,22.2h-3.7l-3.4-10.6c-0.8-2.5-1.4-4.7-2-7.3h-0.1
			c-0.6,2.7-1.2,5-2,7.3l-3.6,10.5h-3.7l-6.7-22.2H339.7z"/>
		<path class="st3" d="M376.4,464.5c0.1,5.5,3.6,7.7,7.7,7.7c2.9,0,4.7-0.5,6.2-1.1l0.7,2.9c-1.4,0.6-3.9,1.4-7.4,1.4
			c-6.9,0-11-4.5-11-11.2c0-6.7,4-12,10.5-12c7.3,0,9.2,6.4,9.2,10.5c0,0.8-0.1,1.5-0.1,1.9H376.4z M388.3,461.6
			c0-2.6-1.1-6.6-5.6-6.6c-4.1,0-5.9,3.8-6.2,6.6H388.3z"/>
		<path class="st3" d="M404.6,446.3v6.4h5.8v3.1h-5.8v12c0,2.8,0.8,4.3,3,4.3c1.1,0,1.8-0.1,2.4-0.3l0.2,3c-0.8,0.3-2,0.6-3.6,0.6
			c-1.9,0-3.4-0.6-4.4-1.7c-1.2-1.2-1.6-3.2-1.6-5.8v-12.1h-3.5v-3.1h3.5v-5.3L404.6,446.3z"/>
		<path class="st3" d="M417,470.8c1.2,0.8,3.3,1.6,5.4,1.6c3,0,4.3-1.5,4.3-3.3c0-1.9-1.2-3-4.2-4.1c-4-1.4-5.9-3.6-5.9-6.3
			c0-3.6,2.9-6.5,7.7-6.5c2.3,0,4.2,0.6,5.5,1.4l-1,2.9c-0.9-0.5-2.5-1.3-4.6-1.3c-2.4,0-3.7,1.4-3.7,3c0,1.8,1.3,2.7,4.2,3.8
			c3.9,1.5,5.9,3.4,5.9,6.7c0,3.9-3,6.7-8.4,6.7c-2.4,0-4.7-0.6-6.3-1.5L417,470.8z"/>
		<path class="st3" d="M438.2,474.9c0.1-1.5,0.2-3.8,0.2-5.7v-26.8h4v13.9h0.1c1.4-2.5,4-4.1,7.6-4.1c5.5,0,9.5,4.6,9.4,11.3
			c0,7.9-5,11.9-10,11.9c-3.2,0-5.8-1.2-7.5-4.2h-0.1l-0.2,3.7H438.2z M442.4,466c0,0.5,0.1,1,0.2,1.5c0.8,2.8,3.1,4.7,6.1,4.7
			c4.2,0,6.8-3.4,6.8-8.5c0-4.4-2.3-8.3-6.6-8.3c-2.8,0-5.4,1.9-6.2,5c-0.1,0.5-0.2,1-0.2,1.7V466z"/>
		<path class="st3" d="M479.5,474.9l-0.3-2.8h-0.1c-1.2,1.7-3.6,3.3-6.8,3.3c-4.5,0-6.8-3.2-6.8-6.4c0-5.4,4.8-8.3,13.4-8.3v-0.5
			c0-1.8-0.5-5.1-5.1-5.1c-2.1,0-4.2,0.6-5.8,1.7l-0.9-2.7c1.8-1.2,4.5-2,7.3-2c6.8,0,8.5,4.6,8.5,9.1v8.3c0,1.9,0.1,3.8,0.4,5.3
			H479.5z M478.9,463.6c-4.4-0.1-9.5,0.7-9.5,5c0,2.6,1.8,3.9,3.8,3.9c2.9,0,4.8-1.8,5.4-3.7c0.1-0.4,0.2-0.9,0.2-1.3V463.6z"/>
		<path class="st3" d="M504.3,474.9l-0.3-2.8h-0.1c-1.2,1.7-3.6,3.3-6.8,3.3c-4.5,0-6.8-3.2-6.8-6.4c0-5.4,4.8-8.3,13.4-8.3v-0.5
			c0-1.8-0.5-5.1-5.1-5.1c-2.1,0-4.2,0.6-5.8,1.7l-0.9-2.7c1.8-1.2,4.5-2,7.3-2c6.8,0,8.5,4.6,8.5,9.1v8.3c0,1.9,0.1,3.8,0.4,5.3
			H504.3z M503.7,463.6c-4.4-0.1-9.5,0.7-9.5,5c0,2.6,1.8,3.9,3.8,3.9c2.9,0,4.8-1.8,5.4-3.7c0.1-0.4,0.2-0.9,0.2-1.3V463.6z"/>
		<path class="st3" d="M516.7,459.6c0-2.6,0-4.9-0.2-6.9h3.6l0.1,4.4h0.2c1-3,3.5-4.9,6.2-4.9c0.5,0,0.8,0,1.2,0.1v3.8
			c-0.4-0.1-0.8-0.1-1.4-0.1c-2.9,0-4.9,2.2-5.4,5.2c-0.1,0.5-0.2,1.2-0.2,1.9v11.8h-4V459.6z"/>
		<path class="st3" d="M534.5,442.3h4.1v13.9h0.1c0.6-1.1,1.7-2.2,2.9-2.8c1.2-0.7,2.6-1.1,4.2-1.1c3,0,7.8,1.8,7.8,9.5v13.2h-4.1
			v-12.8c0-3.6-1.3-6.6-5.2-6.6c-2.6,0-4.7,1.8-5.4,4c-0.2,0.5-0.3,1.1-0.3,1.9v13.4h-4.1V442.3z"/>
		<path class="st3" d="M564.9,464.5c0.1,5.5,3.6,7.7,7.7,7.7c2.9,0,4.7-0.5,6.2-1.1l0.7,2.9c-1.4,0.6-3.9,1.4-7.4,1.4
			c-6.9,0-11-4.5-11-11.2c0-6.7,4-12,10.5-12c7.3,0,9.2,6.4,9.2,10.5c0,0.8-0.1,1.5-0.1,1.9H564.9z M576.8,461.6
			c0-2.6-1.1-6.6-5.6-6.6c-4.1,0-5.9,3.8-6.2,6.6H576.8z"/>
		<path class="st3" d="M592.8,446.4c0,1.4-1,2.5-2.6,2.5c-1.4,0-2.4-1.1-2.4-2.5c0-1.4,1.1-2.5,2.5-2.5
			C591.8,443.9,592.8,445,592.8,446.4z M588.3,474.9v-22.2h4.1v22.2H588.3z"/>
		<path class="st3" d="M620.9,442.3v26.8c0,2,0,4.2,0.2,5.7h-3.6l-0.2-3.9h-0.1c-1.2,2.5-4,4.4-7.6,4.4c-5.4,0-9.5-4.5-9.5-11.3
			c0-7.4,4.6-11.9,10-11.9c3.4,0,5.7,1.6,6.7,3.4h0.1v-13.3H620.9z M616.8,461.7c0-0.5,0-1.2-0.2-1.7c-0.6-2.6-2.8-4.7-5.9-4.7
			c-4.2,0-6.7,3.7-6.7,8.6c0,4.5,2.2,8.2,6.6,8.2c2.7,0,5.2-1.8,6-4.8c0.1-0.6,0.2-1.1,0.2-1.7V461.7z"/>
		<path class="st3" d="M629.6,470.8c1.2,0.8,3.3,1.6,5.4,1.6c3,0,4.3-1.5,4.3-3.3c0-1.9-1.2-3-4.2-4.1c-4-1.4-5.9-3.6-5.9-6.3
			c0-3.6,2.9-6.5,7.7-6.5c2.3,0,4.2,0.6,5.5,1.4l-1,2.9c-0.9-0.5-2.5-1.3-4.6-1.3c-2.4,0-3.7,1.4-3.7,3c0,1.8,1.3,2.7,4.2,3.8
			c3.9,1.5,5.9,3.4,5.9,6.7c0,3.9-3,6.7-8.4,6.7c-2.4,0-4.7-0.6-6.3-1.5L629.6,470.8z"/>
		<path class="st3" d="M650.4,470.8c1.2,0.8,3.3,1.6,5.4,1.6c3,0,4.3-1.5,4.3-3.3c0-1.9-1.2-3-4.2-4.1c-4-1.4-5.9-3.6-5.9-6.3
			c0-3.6,2.9-6.5,7.7-6.5c2.3,0,4.2,0.6,5.5,1.4l-1,2.9c-0.9-0.5-2.5-1.3-4.6-1.3c-2.4,0-3.7,1.4-3.7,3c0,1.8,1.3,2.7,4.2,3.8
			c3.9,1.5,5.9,3.4,5.9,6.7c0,3.9-3,6.7-8.4,6.7c-2.4,0-4.7-0.6-6.3-1.5L650.4,470.8z"/>
		<path class="st3" d="M687.7,474.1c-1.1,0.5-3.4,1.3-6.4,1.3c-6.7,0-11.1-4.5-11.1-11.3c0-6.8,4.7-11.8,12-11.8
			c2.4,0,4.5,0.6,5.6,1.1l-0.9,3.1c-1-0.5-2.5-1.1-4.7-1.1c-5.1,0-7.9,3.8-7.9,8.4c0,5.1,3.3,8.3,7.8,8.3c2.3,0,3.8-0.6,5-1.1
			L687.7,474.1z"/>
		<path class="st3" d="M707.3,474.9l-0.3-2.8h-0.1c-1.2,1.7-3.6,3.3-6.8,3.3c-4.5,0-6.8-3.2-6.8-6.4c0-5.4,4.8-8.3,13.4-8.3v-0.5
			c0-1.8-0.5-5.1-5.1-5.1c-2.1,0-4.2,0.6-5.8,1.7l-0.9-2.7c1.8-1.2,4.5-2,7.3-2c6.8,0,8.5,4.6,8.5,9.1v8.3c0,1.9,0.1,3.8,0.4,5.3
			H707.3z M706.7,463.6c-4.4-0.1-9.5,0.7-9.5,5c0,2.6,1.8,3.9,3.8,3.9c2.9,0,4.8-1.8,5.4-3.7c0.1-0.4,0.2-0.9,0.2-1.3V463.6z"/>
		<path class="st3" d="M719.7,458.7c0-2.3,0-4.2-0.2-6h3.6l0.2,3.7h0.1c1.1-2.1,3.7-4.2,7.4-4.2c3.1,0,7.9,1.8,7.9,9.4v13.3h-4.1
			v-12.8c0-3.6-1.3-6.6-5.2-6.6c-2.7,0-4.8,1.9-5.4,4.1c-0.2,0.5-0.3,1.2-0.3,1.9v13.3h-4.1V458.7z"/>
	</g>
</g>
</svg>
