<?xml version="1.0" encoding="UTF-8"?>
<svg width="619px" height="300px" viewBox="0 0 619 300" version="1.1" xmlns="http://www.w3.org/2000/svg" xmlns:xlink="http://www.w3.org/1999/xlink">
    <!-- Generator: Sketch 49.1 (51147) - http://www.bohemiancoding.com/sketch -->
    <title>logo</title>
    <desc>Created with Sketch.</desc>
    <defs></defs>
    <g id="Page-1" stroke="none" stroke-width="1" fill="none" fill-rule="evenodd">
        <g id="BlueLabel-logo_met-descriptor[1]" fill-rule="nonzero">
            <g id="logo">
                <path d="M122.3,64.4 C122.3,64.4 122.3,63.1 122,60.9 C121.7,27.6 94.6,0.8 61.2,0.8 C28.2,0.8 1,26.8 0.2,59.6 C0.1,62.5 0.2,175 0.2,175 L121.9,176 L122.3,64.4 Z" id="Shape" fill="#77C1DD"></path>
                <path d="M98.2,137.9 C92.9,136.2 87.4,134.8 81.6,133.6 C40.2,125.2 0.1,105.2 0.1,59.5 L0.1,215.6 C0.1,216 0.1,216.4 0.1,216.9 C0.1,217.3 0.1,217.7 0.1,218.1 C0.1,263.3 36.8,300 82,300 C127.2,300 163.9,263.3 163.9,218.1 C163.9,178.5 135.7,145.4 98.2,137.9 Z" id="Shape" fill="#0787A8"></path>
                <path d="M240.5,91.9 L240.5,74.4 C240.5,47.4 225.2,31.9 198.5,31.9 C192.4,31.9 186.3,33 180.5,35 L180.5,9.2 C180.5,4.4 176.8,0.7 172,0.7 L168.7,0.7 C163.9,0.7 160.2,4.4 160.2,9.2 L160.2,119.9 C160.2,123.5 162.4,126.8 165.8,128.1 C175.7,132.1 187.2,134.3 198.3,134.3 C225.1,134.3 240.5,118.8 240.5,91.9 Z M220,91.9 C220,107.9 213.7,114.5 198.2,114.5 C191.3,114.5 185.2,113.4 180.4,112.1 L180.4,56.4 C185.9,53.5 192.1,51.9 198.2,51.9 C213.7,51.9 220,58.4 220,74.5 L220,91.9 Z M290.5,134.3 C293.5,134.3 297.9,133.9 300.9,133.6 L301.4,133.5 L301.9,133.4 C305.9,132.4 308.6,128.9 308.6,124.8 L308.6,122 C308.6,117.2 304.9,113.7 300.1,113.7 L299.5,113.7 L298.9,113.8 C296.1,114.2 292.7,114.4 290.7,114.4 C287.6,114.4 282.5,114.4 282.5,100.3 L282.5,9.2 C282.5,4.4 278.8,0.7 274,0.7 L270.7,0.7 C265.9,0.7 262.2,4.4 262.2,9.2 L262.2,99.8 C262.2,130.9 282,134.3 290.5,134.3 Z M398.5,119.2 L398.5,42.2 C398.5,37.3 394.8,33.5 390,33.5 L386.9,33.5 C382.1,33.5 378.2,37.4 378.2,42.2 L378.2,111.8 C372.3,113.6 366.6,114.5 361,114.5 C346.3,114.5 339.7,108.1 339.7,93.7 L339.7,42.2 C339.7,37.3 336,33.5 331.2,33.5 L328,33.5 C323.2,33.5 319.5,37.3 319.5,42.2 L319.5,93.7 C319.5,119.1 335,134.3 361,134.3 C372.2,134.3 383.2,132 392.9,127.6 C396.3,126.3 398.5,123 398.5,119.2 Z M496.5,114.8 C496.9,112.3 496.1,109.8 494.3,107.8 L492.8,106 C490.1,102.5 485.2,101.7 481.4,104.3 L481,104.6 L480.6,105 C473.2,111.6 466.2,114.5 457.8,114.5 C447.9,114.5 437.8,109.1 437.8,97 L437.8,93.7 L489.2,93.7 C494,93.7 497.7,90 497.7,85.2 L497.7,70.5 C497.7,47.4 481.6,31.9 457.6,31.9 C433.6,31.9 417.5,47.4 417.5,70.5 L417.5,97 C417.5,108 421.9,117.8 430,124.7 C437.3,130.9 447.1,134.3 457.6,134.3 C470.9,134.3 482.8,129.5 493.2,120.1 C495,118.8 496.2,117 496.5,114.8 Z M437.9,70.5 C437.9,62 441.3,51.9 457.7,51.9 C465.1,51.9 477.5,54.3 477.5,70.5 L477.5,74.1 L437.9,74.1 L437.9,70.5 Z M239.1,278.3 L238.5,278.3 L237.9,278.4 C235.1,278.8 231.7,279 229.7,279 C226.6,279 221.5,279 221.5,264.9 L221.5,173.8 C221.5,169 217.8,165.3 213,165.3 L209.7,165.3 C204.9,165.3 201.2,169 201.2,173.8 L201.2,264.4 C201.2,295.5 221,298.9 229.5,298.9 C232.5,298.9 236.9,298.5 239.9,298.2 L240.4,298.1 L240.9,298 C244.9,297 247.6,293.5 247.6,289.4 L247.6,286.6 C247.6,281.9 244,278.3 239.1,278.3 Z M302.4,196.5 C289.9,196.5 277.6,200 268.8,206.2 L268.3,206.6 L267.8,207.1 C266.4,208.5 264.4,211.4 266,216.1 L266.3,217 L268.7,220.8 L269.3,221.4 C272,224.1 276,224.7 279.5,223 L280.2,222.6 C284.8,219.7 293.1,216.6 302.4,216.6 C314.9,216.6 319.9,221.4 320.1,233.8 C313.9,232.8 308,232.3 302.4,232.3 C277.1,232.3 261.3,245 261.3,265.3 C261.3,285.5 277.8,299 302.4,299 C318.1,299 330,294.8 334.7,292.8 C338.1,291.6 340.4,288.3 340.4,284.6 L340.4,234.2 C340.2,210.6 326.1,196.5 302.4,196.5 Z M319.9,276.6 C314.2,278.2 308.3,279.1 302.2,279.1 C292.6,279.1 281.4,275.5 281.4,265.2 C281.4,261.9 281.4,252 302.2,252 C307.6,252 313.9,252.6 319.9,253.6 L319.9,276.6 Z M404.5,196.5 C398.4,196.5 392.3,197.6 386.5,199.6 L386.5,173.8 C386.5,169 382.8,165.3 378,165.3 L374.7,165.3 C369.9,165.3 366.2,169 366.2,173.8 L366.2,284.5 C366.2,288.1 368.4,291.4 371.8,292.7 C381.7,296.7 393.2,298.9 404.3,298.9 C431.1,298.9 446.5,283.5 446.5,256.5 L446.5,239 C446.5,212 431.2,196.5 404.5,196.5 Z M426.1,256.5 C426.1,272.5 419.8,279.1 404.3,279.1 C397.4,279.1 391.3,278 386.5,276.7 L386.5,221 C392,218.1 398.2,216.5 404.3,216.5 C419.8,216.5 426.1,223 426.1,239.1 L426.1,256.5 Z M508.3,196.5 C484.3,196.5 468.2,212 468.2,235.1 L468.2,261.6 C468.2,272.6 472.6,282.4 480.7,289.3 C488,295.5 497.8,298.9 508.3,298.9 C521.6,298.9 533.5,294.1 543.9,284.7 C545.7,283.4 546.9,281.5 547.2,279.4 C547.6,276.9 546.8,274.4 545,272.4 L543.5,270.6 C540.8,267.1 535.9,266.3 532.1,268.9 L531.7,269.2 L531.3,269.6 C523.9,276.2 516.9,279.1 508.5,279.1 C498.6,279.1 488.5,273.7 488.5,261.6 L488.5,258.3 L539.9,258.3 C544.7,258.3 548.4,254.6 548.4,249.8 L548.4,235.1 C548.4,212 532.3,196.5 508.3,196.5 Z M528.1,238.7 L488.5,238.7 L488.5,235.1 C488.5,226.6 491.9,216.5 508.3,216.5 C515.7,216.5 528.1,218.9 528.1,235.1 L528.1,238.7 Z M610.2,278.3 L609.6,278.3 L609,278.4 C606.2,278.8 602.8,279 600.8,279 C597.7,279 592.6,279 592.6,264.9 L592.6,173.8 C592.6,169 588.9,165.3 584.1,165.3 L581,165.3 C576.2,165.3 572.5,169 572.5,173.8 L572.5,264.4 C572.5,295.5 592.3,298.9 600.8,298.9 C603.8,298.9 608.2,298.5 611.2,298.2 L611.7,298.1 L612.2,298 C616.2,297 618.9,293.5 618.9,289.4 L618.9,286.6 C618.7,281.9 615.1,278.3 610.2,278.3 Z" id="Shape" fill="#014A6C"></path>
            </g>
        </g>
    </g>
</svg>