<?xml version="1.0" encoding="UTF-8"?>
<svg width="2186px" height="300px" viewBox="0 0 2186 300" version="1.1" xmlns="http://www.w3.org/2000/svg" xmlns:xlink="http://www.w3.org/1999/xlink">
    <!-- Generator: Sketch 49.1 (51147) - http://www.bohemiancoding.com/sketch -->
    <title>BlueLabel logo_met descriptor[1]</title>
    <desc>Created with Sketch.</desc>
    <defs></defs>
    <g id="Page-1" stroke="none" stroke-width="1" fill="none" fill-rule="evenodd">
        <g id="BlueLabel-logo_met-descriptor[1]" fill-rule="nonzero">
            <g id="logo">
                <path d="M122.3,64.4 C122.3,64.4 122.3,63.1 122,60.9 C121.7,27.6 94.6,0.8 61.2,0.8 C28.2,0.8 1,26.8 0.2,59.6 C0.1,62.5 0.2,175 0.2,175 L121.9,176 L122.3,64.4 Z" id="Shape" fill="#77C1DD"></path>
                <path d="M98.2,137.9 C92.9,136.2 87.4,134.8 81.6,133.6 C40.2,125.2 0.1,105.2 0.1,59.5 L0.1,215.6 C0.1,216 0.1,216.4 0.1,216.9 C0.1,217.3 0.1,217.7 0.1,218.1 C0.1,263.3 36.8,300 82,300 C127.2,300 163.9,263.3 163.9,218.1 C163.9,178.5 135.7,145.4 98.2,137.9 Z" id="Shape" fill="#0787A8"></path>
                <path d="M240.5,91.9 L240.5,74.4 C240.5,47.4 225.2,31.9 198.5,31.9 C192.4,31.9 186.3,33 180.5,35 L180.5,9.2 C180.5,4.4 176.8,0.7 172,0.7 L168.7,0.7 C163.9,0.7 160.2,4.4 160.2,9.2 L160.2,119.9 C160.2,123.5 162.4,126.8 165.8,128.1 C175.7,132.1 187.2,134.3 198.3,134.3 C225.1,134.3 240.5,118.8 240.5,91.9 Z M220,91.9 C220,107.9 213.7,114.5 198.2,114.5 C191.3,114.5 185.2,113.4 180.4,112.1 L180.4,56.4 C185.9,53.5 192.1,51.9 198.2,51.9 C213.7,51.9 220,58.4 220,74.5 L220,91.9 Z M290.5,134.3 C293.5,134.3 297.9,133.9 300.9,133.6 L301.4,133.5 L301.9,133.4 C305.9,132.4 308.6,128.9 308.6,124.8 L308.6,122 C308.6,117.2 304.9,113.7 300.1,113.7 L299.5,113.7 L298.9,113.8 C296.1,114.2 292.7,114.4 290.7,114.4 C287.6,114.4 282.5,114.4 282.5,100.3 L282.5,9.2 C282.5,4.4 278.8,0.7 274,0.7 L270.7,0.7 C265.9,0.7 262.2,4.4 262.2,9.2 L262.2,99.8 C262.2,130.9 282,134.3 290.5,134.3 Z M398.5,119.2 L398.5,42.2 C398.5,37.3 394.8,33.5 390,33.5 L386.9,33.5 C382.1,33.5 378.2,37.4 378.2,42.2 L378.2,111.8 C372.3,113.6 366.6,114.5 361,114.5 C346.3,114.5 339.7,108.1 339.7,93.7 L339.7,42.2 C339.7,37.3 336,33.5 331.2,33.5 L328,33.5 C323.2,33.5 319.5,37.3 319.5,42.2 L319.5,93.7 C319.5,119.1 335,134.3 361,134.3 C372.2,134.3 383.2,132 392.9,127.6 C396.3,126.3 398.5,123 398.5,119.2 Z M496.5,114.8 C496.9,112.3 496.1,109.8 494.3,107.8 L492.8,106 C490.1,102.5 485.2,101.7 481.4,104.3 L481,104.6 L480.6,105 C473.2,111.6 466.2,114.5 457.8,114.5 C447.9,114.5 437.8,109.1 437.8,97 L437.8,93.7 L489.2,93.7 C494,93.7 497.7,90 497.7,85.2 L497.7,70.5 C497.7,47.4 481.6,31.9 457.6,31.9 C433.6,31.9 417.5,47.4 417.5,70.5 L417.5,97 C417.5,108 421.9,117.8 430,124.7 C437.3,130.9 447.1,134.3 457.6,134.3 C470.9,134.3 482.8,129.5 493.2,120.1 C495,118.8 496.2,117 496.5,114.8 Z M437.9,70.5 C437.9,62 441.3,51.9 457.7,51.9 C465.1,51.9 477.5,54.3 477.5,70.5 L477.5,74.1 L437.9,74.1 L437.9,70.5 Z M239.1,278.3 L238.5,278.3 L237.9,278.4 C235.1,278.8 231.7,279 229.7,279 C226.6,279 221.5,279 221.5,264.9 L221.5,173.8 C221.5,169 217.8,165.3 213,165.3 L209.7,165.3 C204.9,165.3 201.2,169 201.2,173.8 L201.2,264.4 C201.2,295.5 221,298.9 229.5,298.9 C232.5,298.9 236.9,298.5 239.9,298.2 L240.4,298.1 L240.9,298 C244.9,297 247.6,293.5 247.6,289.4 L247.6,286.6 C247.6,281.9 244,278.3 239.1,278.3 Z M302.4,196.5 C289.9,196.5 277.6,200 268.8,206.2 L268.3,206.6 L267.8,207.1 C266.4,208.5 264.4,211.4 266,216.1 L266.3,217 L268.7,220.8 L269.3,221.4 C272,224.1 276,224.7 279.5,223 L280.2,222.6 C284.8,219.7 293.1,216.6 302.4,216.6 C314.9,216.6 319.9,221.4 320.1,233.8 C313.9,232.8 308,232.3 302.4,232.3 C277.1,232.3 261.3,245 261.3,265.3 C261.3,285.5 277.8,299 302.4,299 C318.1,299 330,294.8 334.7,292.8 C338.1,291.6 340.4,288.3 340.4,284.6 L340.4,234.2 C340.2,210.6 326.1,196.5 302.4,196.5 Z M319.9,276.6 C314.2,278.2 308.3,279.1 302.2,279.1 C292.6,279.1 281.4,275.5 281.4,265.2 C281.4,261.9 281.4,252 302.2,252 C307.6,252 313.9,252.6 319.9,253.6 L319.9,276.6 Z M404.5,196.5 C398.4,196.5 392.3,197.6 386.5,199.6 L386.5,173.8 C386.5,169 382.8,165.3 378,165.3 L374.7,165.3 C369.9,165.3 366.2,169 366.2,173.8 L366.2,284.5 C366.2,288.1 368.4,291.4 371.8,292.7 C381.7,296.7 393.2,298.9 404.3,298.9 C431.1,298.9 446.5,283.5 446.5,256.5 L446.5,239 C446.5,212 431.2,196.5 404.5,196.5 Z M426.1,256.5 C426.1,272.5 419.8,279.1 404.3,279.1 C397.4,279.1 391.3,278 386.5,276.7 L386.5,221 C392,218.1 398.2,216.5 404.3,216.5 C419.8,216.5 426.1,223 426.1,239.1 L426.1,256.5 Z M508.3,196.5 C484.3,196.5 468.2,212 468.2,235.1 L468.2,261.6 C468.2,272.6 472.6,282.4 480.7,289.3 C488,295.5 497.8,298.9 508.3,298.9 C521.6,298.9 533.5,294.1 543.9,284.7 C545.7,283.4 546.9,281.5 547.2,279.4 C547.6,276.9 546.8,274.4 545,272.4 L543.5,270.6 C540.8,267.1 535.9,266.3 532.1,268.9 L531.7,269.2 L531.3,269.6 C523.9,276.2 516.9,279.1 508.5,279.1 C498.6,279.1 488.5,273.7 488.5,261.6 L488.5,258.3 L539.9,258.3 C544.7,258.3 548.4,254.6 548.4,249.8 L548.4,235.1 C548.4,212 532.3,196.5 508.3,196.5 Z M528.1,238.7 L488.5,238.7 L488.5,235.1 C488.5,226.6 491.9,216.5 508.3,216.5 C515.7,216.5 528.1,218.9 528.1,235.1 L528.1,238.7 Z M610.2,278.3 L609.6,278.3 L609,278.4 C606.2,278.8 602.8,279 600.8,279 C597.7,279 592.6,279 592.6,264.9 L592.6,173.8 C592.6,169 588.9,165.3 584.1,165.3 L581,165.3 C576.2,165.3 572.5,169 572.5,173.8 L572.5,264.4 C572.5,295.5 592.3,298.9 600.8,298.9 C603.8,298.9 608.2,298.5 611.2,298.2 L611.7,298.1 L612.2,298 C616.2,297 618.9,293.5 618.9,289.4 L618.9,286.6 C618.7,281.9 615.1,278.3 610.2,278.3 Z" id="Shape" fill="#014A6C"></path>
            </g>
            <g id="title" transform="translate(721.000000, 219.000000)" fill="#0485A8">
                <path d="M3.34373052e-14,5.43312102 C5.64705882,4.47770701 12.7058824,4 20,4 C33.6470588,4 43.2941176,7.10509554 49.6470588,13.3152866 C56.2352941,19.2866242 60,27.8853503 60,39.8280255 C60,51.7707006 56.2352941,61.8025478 49.4117647,68.4904459 C42.5882353,75.4171975 31.2941176,79 17.1764706,79 C10.3529412,79 4.70588235,78.7611465 0,78.044586 L0,5.43312102 Z M9.41176471,70.6401274 C11.7647059,71.1178344 15.2941176,71.1178344 19.0588235,71.1178344 C39.2941176,71.1178344 50.1176471,59.6528662 50.1176471,39.8280255 C50.1176471,22.3917197 40.4705882,11.4044586 20.4705882,11.4044586 C15.5294118,11.4044586 12,11.8821656 9.41176471,12.3598726 L9.41176471,70.6401274 Z" id="Shape"></path>
                <path d="M83.8730964,53.1594828 C84.106599,66.1982759 92.2791878,71.4137931 101.852792,71.4137931 C108.624365,71.4137931 112.827411,70.2284483 116.329949,68.8060345 L117.964467,75.6810345 C114.695431,77.1034483 108.857868,79 100.685279,79 C84.5736041,79 75,68.3318966 75,52.4482759 C75,36.5646552 84.3401015,24 99.5177665,24 C116.563452,24 121,39.1724138 121,48.8922414 C121,50.7887931 120.766497,52.4482759 120.766497,53.3965517 L83.8730964,53.3965517 L83.8730964,53.1594828 Z M111.659898,46.2844828 C111.659898,40.1206897 109.091371,30.637931 98.5837563,30.637931 C89.0101523,30.637931 84.8071066,39.6465517 84.106599,46.2844828 L111.659898,46.2844828 Z" id="Shape"></path>
                <path d="M171.743827,24 L178.873457,50.8565022 C180.299383,56.7982063 181.725309,62.264574 182.91358,67.7309417 L183.151235,67.7309417 C184.339506,62.5022422 186.003086,56.7982063 187.904321,51.0941704 L196.459877,24.2376682 L204.540123,24.2376682 L212.858025,50.6188341 C214.759259,57.0358744 216.42284,62.5022422 217.611111,67.7309417 L217.848765,67.7309417 C218.799383,62.5022422 220.225309,56.7982063 221.888889,50.6188341 L229.493827,24.2376682 L239,24.2376682 L221.888889,77 L213.095679,77 L205.015432,51.8071749 C203.114198,45.8654709 201.688272,40.6367713 200.262346,34.4573991 L200.024691,34.4573991 C198.598765,40.8744395 197.17284,46.3408072 195.271605,51.8071749 L186.716049,76.7623318 L177.92284,76.7623318 L162,24 L171.743827,24 Z" id="Shape"></path>
                <path d="M283.033708,77.8197425 L282.325843,71.2103004 L282.089888,71.2103004 C279.258427,75.223176 273.595506,79 266.044944,79 C255.426966,79 250,71.4463519 250,63.8927039 C250,51.1459227 261.325843,44.3004292 281.617978,44.3004292 L281.617978,43.1201717 C281.617978,38.8712446 280.438202,31.0815451 269.58427,31.0815451 C264.629213,31.0815451 259.674157,32.4978541 255.898876,35.0944206 L253.775281,28.72103 C258.022472,25.888412 264.393258,24 271,24 C287.044944,24 291.05618,34.8583691 291.05618,45.4806867 L291.05618,65.0729614 C291.05618,69.5579399 291.292135,74.0429185 292,77.583691 L283.033708,77.583691 L283.033708,77.8197425 Z M281.617978,51.1459227 C271.235955,50.9098712 259.202247,52.7982833 259.202247,62.9484979 C259.202247,69.0858369 263.449438,72.1545064 268.168539,72.1545064 C275.011236,72.1545064 279.494382,67.9055794 280.910112,63.4206009 C281.146067,62.4763948 281.382022,61.2961373 281.382022,60.3519313 L281.382022,51.1459227 L281.617978,51.1459227 Z" id="Shape"></path>
                <path d="M324.481203,9 L324.481203,24.1752577 L338,24.1752577 L338,31.5257732 L324.481203,31.5257732 L324.481203,59.9793814 C324.481203,66.6185567 326.345865,70.1752577 331.473684,70.1752577 C334.037594,70.1752577 335.669173,69.9381443 337.067669,69.4639175 L337.533835,76.5773196 C335.669173,77.2886598 332.87218,78 329.142857,78 C324.714286,78 321.218045,76.5773196 318.887218,73.9690722 C316.090226,71.1237113 315.157895,66.3814433 315.157895,60.2164948 L315.157895,31.5257732 L307,31.5257732 L307,24.1752577 L315.157895,24.1752577 L315.157895,11.6082474 L324.481203,9 Z" id="Shape"></path>
                <path d="M359.873096,53.1594828 C360.106599,66.1982759 368.279188,71.4137931 377.852792,71.4137931 C384.624365,71.4137931 388.827411,70.2284483 392.329949,68.8060345 L393.964467,75.6810345 C390.695431,77.1034483 384.857868,79 376.685279,79 C360.573604,79 351,68.3318966 351,52.4482759 C351,36.5646552 360.340102,24 375.517766,24 C392.563452,24 397,39.1724138 397,48.8922414 C397,50.7887931 396.766497,52.4482759 396.766497,53.3965517 L359.873096,53.3965517 L359.873096,53.1594828 Z M387.659898,46.2844828 C387.659898,40.1206897 385.091371,30.637931 374.583756,30.637931 C365.010152,30.637931 360.807107,39.6465517 360.106599,46.2844828 L387.659898,46.2844828 Z" id="Shape"></path>
                <path d="M414.477876,41.6035242 C414.477876,35.4185022 414.477876,29.9471366 414,25.1894273 L422.60177,25.1894273 L422.840708,35.6563877 L423.318584,35.6563877 C425.707965,28.5198238 431.681416,24 438.132743,24 C439.327434,24 440.044248,24 441,24.2378855 L441,33.277533 C440.044248,33.0396476 439.088496,33.0396476 437.654867,33.0396476 C430.725664,33.0396476 425.946903,38.2731278 424.752212,45.4096916 C424.513274,46.5991189 424.274336,48.2643172 424.274336,49.9295154 L424.274336,78 L414.716814,78 L414.716814,41.6035242 L414.477876,41.6035242 Z" id="Shape"></path>
                <path d="M467.176471,48.6564417 C468.588235,46.7668712 470.470588,44.6411043 472.117647,42.7515337 L487.647059,24.5644172 L499.176471,24.5644172 L478.941176,46.0582822 L502,77 L490.470588,77 L472.352941,51.9631902 L467.411765,57.3957055 L467.411765,77 L458,77 L458,0 L467.411765,0 L467.411765,48.6564417 L467.176471,48.6564417 Z" id="Shape"></path>
                <path d="M519.743827,24 L526.873457,50.8565022 C528.299383,56.7982063 529.725309,62.264574 530.91358,67.7309417 L531.151235,67.7309417 C532.339506,62.5022422 534.003086,56.7982063 535.904321,51.0941704 L544.459877,24.2376682 L552.540123,24.2376682 L560.858025,50.6188341 C562.759259,57.0358744 564.42284,62.5022422 565.611111,67.7309417 L565.848765,67.7309417 C566.799383,62.5022422 568.225309,56.7982063 569.888889,50.6188341 L577.493827,24.2376682 L587,24.2376682 L569.888889,77 L561.095679,77 L553.015432,51.8071749 C551.114198,45.8654709 549.688272,40.6367713 548.262346,34.4573991 L548.024691,34.4573991 C546.598765,40.8744395 545.17284,46.3408072 543.271605,51.8071749 L534.716049,76.7623318 L525.92284,76.7623318 L510,24 L519.743827,24 Z" id="Shape"></path>
                <path d="M606.873096,53.1594828 C607.106599,66.1982759 615.279188,71.4137931 624.852792,71.4137931 C631.624365,71.4137931 635.827411,70.2284483 639.329949,68.8060345 L640.964467,75.6810345 C637.695431,77.1034483 631.857868,79 623.685279,79 C607.573604,79 598,68.3318966 598,52.4482759 C598,36.5646552 607.340102,24 622.517766,24 C639.563452,24 644,39.1724138 644,48.8922414 C644,50.7887931 643.766497,52.4482759 643.766497,53.3965517 L606.873096,53.3965517 L606.873096,53.1594828 Z M634.659898,46.2844828 C634.659898,40.1206897 632.091371,30.637931 621.583756,30.637931 C612.010152,30.637931 607.807107,39.6465517 607.106599,46.2844828 L634.659898,46.2844828 Z" id="Shape"></path>
                <path d="M673.481203,9 L673.481203,24.1752577 L687,24.1752577 L687,31.5257732 L673.481203,31.5257732 L673.481203,59.9793814 C673.481203,66.6185567 675.345865,70.1752577 680.473684,70.1752577 C683.037594,70.1752577 684.669173,69.9381443 686.067669,69.4639175 L686.533835,76.5773196 C684.669173,77.2886598 681.87218,78 678.142857,78 C673.714286,78 670.218045,76.5773196 667.887218,73.9690722 C665.090226,71.1237113 664.157895,66.3814433 664.157895,60.2164948 L664.157895,31.5257732 L656,31.5257732 L656,24.1752577 L664.157895,24.1752577 L664.157895,11.6082474 L673.481203,9 Z" id="Shape"></path>
                <path d="M702.619048,68.0948276 C705.47619,69.9913793 710.47619,71.887931 715.47619,71.887931 C722.619048,71.887931 725.714286,68.3318966 725.714286,64.0646552 C725.714286,59.5603448 722.857143,56.9525862 715.714286,54.3448276 C706.190476,51.0258621 701.666667,45.8103448 701.666667,39.4094828 C701.666667,30.875 708.571429,24 720,24 C725.47619,24 730,25.4224138 733.095238,27.3189655 L730.714286,34.1939655 C728.571429,33.0086207 724.761905,31.112069 719.761905,31.112069 C714.047619,31.112069 710.952381,34.4310345 710.952381,38.2241379 C710.952381,42.4913793 714.047619,44.625 720.952381,47.2327586 C730.238095,50.7887931 735,55.2931034 735,63.1163793 C735,72.362069 727.857143,79 715,79 C709.285714,79 703.809524,77.5775862 700,75.4439655 L702.619048,68.0948276 Z" id="Shape"></path>
                <path d="M753,76.8181818 C753.239416,73.2727273 753.478832,67.8363636 753.478832,63.3454545 L753.478832,0 L763.055472,0 L763.055472,32.8545455 L763.294888,32.8545455 C766.646712,26.9454545 772.871528,23.1636364 781.490505,23.1636364 C794.658385,23.1636364 804.235025,34.0363636 803.995609,49.8727273 C803.995609,68.5454545 792.024809,78 780.054009,78 C772.392696,78 766.16788,75.1636364 762.097808,68.0727273 L761.858392,68.0727273 L761.37956,76.8181818 L753,76.8181818 Z M763.055472,55.7818182 C763.055472,56.9636364 763.294888,58.1454545 763.534304,59.3272727 C765.449632,65.9454545 770.9562,70.4363636 778.138681,70.4363636 C788.194153,70.4363636 794.418969,62.4 794.418969,50.3454545 C794.418969,39.9454545 788.912401,30.7272727 778.617513,30.7272727 C771.913864,30.7272727 765.689048,35.2181818 763.77372,42.5454545 C763.534304,43.7272727 763.294888,44.9090909 763.294888,46.5636364 L763.294888,55.7818182 L763.055472,55.7818182 Z" id="Shape"></path>
                <path d="M851.033708,77.8197425 L850.325843,71.2103004 L850.089888,71.2103004 C847.258427,75.223176 841.595506,79 834.044944,79 C823.426966,79 818,71.4463519 818,63.8927039 C818,51.1459227 829.325843,44.3004292 849.617978,44.3004292 L849.617978,43.1201717 C849.617978,38.8712446 848.438202,31.0815451 837.58427,31.0815451 C832.629213,31.0815451 827.674157,32.4978541 823.898876,35.0944206 L821.775281,28.72103 C826.022472,25.888412 832.393258,24 839,24 C855.044944,24 859.05618,34.8583691 859.05618,45.4806867 L859.05618,65.0729614 C859.05618,69.5579399 859.292135,74.0429185 860,77.583691 L851.033708,77.583691 L851.033708,77.8197425 Z M849.617978,51.1459227 C839.235955,50.9098712 827.202247,52.7982833 827.202247,62.9484979 C827.202247,69.0858369 831.449438,72.1545064 836.168539,72.1545064 C843.011236,72.1545064 847.494382,67.9055794 848.910112,63.4206009 C849.146067,62.4763948 849.382022,61.2961373 849.382022,60.3519313 L849.382022,51.1459227 L849.617978,51.1459227 Z" id="Shape"></path>
                <path d="M909.033708,77.8197425 L908.325843,71.2103004 L908.089888,71.2103004 C905.258427,75.223176 899.595506,79 892.044944,79 C881.426966,79 876,71.4463519 876,63.8927039 C876,51.1459227 887.325843,44.3004292 907.617978,44.3004292 L907.617978,43.1201717 C907.617978,38.8712446 906.438202,31.0815451 895.58427,31.0815451 C890.629213,31.0815451 885.674157,32.4978541 881.898876,35.0944206 L879.775281,28.72103 C884.022472,25.888412 890.393258,24 897,24 C913.044944,24 917.05618,34.8583691 917.05618,45.4806867 L917.05618,65.0729614 C917.05618,69.5579399 917.292135,74.0429185 918,77.583691 L909.033708,77.583691 L909.033708,77.8197425 Z M907.617978,51.1459227 C897.235955,50.9098712 885.202247,52.7982833 885.202247,62.9484979 C885.202247,69.0858369 889.449438,72.1545064 894.168539,72.1545064 C901.011236,72.1545064 905.494382,67.9055794 906.910112,63.4206009 C907.146067,62.4763948 907.382022,61.2961373 907.382022,60.3519313 L907.382022,51.1459227 L907.617978,51.1459227 Z" id="Shape"></path>
                <path d="M938.477876,41.6035242 C938.477876,35.4185022 938.477876,29.9471366 938,25.1894273 L946.60177,25.1894273 L946.840708,35.6563877 L947.318584,35.6563877 C949.707965,28.5198238 955.681416,24 962.132743,24 C963.327434,24 964.044248,24 965,24.2378855 L965,33.277533 C964.044248,33.0396476 963.088496,33.0396476 961.654867,33.0396476 C954.725664,33.0396476 949.946903,38.2731278 948.752212,45.4096916 C948.513274,46.5991189 948.274336,48.2643172 948.274336,49.9295154 L948.274336,78 L938.716814,78 L938.716814,41.6035242 L938.477876,41.6035242 Z" id="Shape"></path>
                <path d="M981,0 L990.659686,0 L990.659686,33.1559633 L990.895288,33.1559633 C992.308901,30.5321101 994.900524,27.9082569 997.727749,26.4770642 C1000.55497,24.8073394 1003.8534,23.853211 1007.62304,23.853211 C1014.6911,23.853211 1026,28.146789 1026,46.5137615 L1026,78 L1016.34031,78 L1016.34031,47.4678899 C1016.34031,38.8807339 1013.27749,31.7247706 1004.08901,31.7247706 C997.963351,31.7247706 993.015707,36.0183486 991.366492,41.266055 C990.895288,42.4587156 990.659686,43.8899083 990.659686,45.7981651 L990.659686,77.7614679 L981,77.7614679 L981,0 Z" id="Shape"></path>
                <path d="M1052.8731,53.1594828 C1053.1066,66.1982759 1061.27919,71.4137931 1070.85279,71.4137931 C1077.62437,71.4137931 1081.82741,70.2284483 1085.32995,68.8060345 L1086.96447,75.6810345 C1083.69543,77.1034483 1077.85787,79 1069.68528,79 C1053.5736,79 1044,68.3318966 1044,52.4482759 C1044,36.5646552 1053.3401,24 1068.51777,24 C1085.56345,24 1090,39.1724138 1090,48.8922414 C1090,50.7887931 1089.7665,52.4482759 1089.7665,53.3965517 L1052.8731,53.3965517 L1052.8731,53.1594828 Z M1080.6599,46.2844828 C1080.6599,40.1206897 1078.09137,30.637931 1067.58376,30.637931 C1058.01015,30.637931 1053.80711,39.6465517 1053.1066,46.2844828 L1080.6599,46.2844828 Z" id="Shape"></path>
                <path d="M1118,9.96774194 C1118,13.3096774 1115.8,15.9354839 1112.28,15.9354839 C1109.2,15.9354839 1107,13.3096774 1107,9.96774194 C1107,6.62580645 1109.42,4 1112.5,4 C1115.8,4 1118,6.62580645 1118,9.96774194 Z M1108.1,78 L1108.1,25.0064516 L1117.12,25.0064516 L1117.12,78 L1108.1,78 Z" id="Shape"></path>
                <path d="M1185.53333,0.238670695 L1185.53333,64.2024169 C1185.53333,68.9758308 1185.53333,74.2265861 1186,77.8066465 L1177.6,77.8066465 L1177.13333,68.4984894 L1176.9,68.4984894 C1174.1,74.4652568 1167.56667,79 1159.16667,79 C1146.56667,79 1137,68.2598187 1137,52.0302115 C1137,34.3685801 1147.73333,23.6283988 1160.33333,23.6283988 C1168.26667,23.6283988 1173.63333,27.4471299 1175.96667,31.7432024 L1176.2,31.7432024 L1176.2,0 L1185.53333,0 L1185.53333,0.238670695 Z M1175.96667,46.5407855 C1175.96667,45.347432 1175.96667,43.6767372 1175.5,42.4833837 C1174.1,36.2779456 1168.96667,31.265861 1161.73333,31.265861 C1151.93333,31.265861 1146.1,40.0966767 1146.1,51.7915408 C1146.1,62.5317221 1151.23333,71.3625378 1161.5,71.3625378 C1167.8,71.3625378 1173.63333,67.0664653 1175.5,59.9063444 C1175.73333,58.4743202 1175.96667,57.2809668 1175.96667,55.8489426 L1175.96667,46.5407855 Z" id="Shape"></path>
                <path d="M1206.61905,68.0948276 C1209.47619,69.9913793 1214.47619,71.887931 1219.47619,71.887931 C1226.61905,71.887931 1229.71429,68.3318966 1229.71429,64.0646552 C1229.71429,59.5603448 1226.85714,56.9525862 1219.71429,54.3448276 C1210.19048,51.0258621 1205.66667,45.8103448 1205.66667,39.4094828 C1205.66667,30.875 1212.57143,24 1224,24 C1229.47619,24 1234,25.4224138 1237.09524,27.3189655 L1234.71429,34.1939655 C1232.57143,33.0086207 1228.7619,31.112069 1223.7619,31.112069 C1218.04762,31.112069 1214.95238,34.4310345 1214.95238,38.2241379 C1214.95238,42.4913793 1218.04762,44.625 1224.95238,47.2327586 C1234.2381,50.7887931 1239,55.2931034 1239,63.1163793 C1239,72.362069 1231.85714,79 1219,79 C1213.28571,79 1207.80952,77.5775862 1204,75.4439655 L1206.61905,68.0948276 Z" id="Shape"></path>
                <path d="M1255.61905,68.0948276 C1258.47619,69.9913793 1263.47619,71.887931 1268.47619,71.887931 C1275.61905,71.887931 1278.71429,68.3318966 1278.71429,64.0646552 C1278.71429,59.5603448 1275.85714,56.9525862 1268.71429,54.3448276 C1259.19048,51.0258621 1254.66667,45.8103448 1254.66667,39.4094828 C1254.66667,30.875 1261.57143,24 1273,24 C1278.47619,24 1283,25.4224138 1286.09524,27.3189655 L1283.71429,34.1939655 C1281.57143,33.0086207 1277.7619,31.112069 1272.7619,31.112069 C1267.04762,31.112069 1263.95238,34.4310345 1263.95238,38.2241379 C1263.95238,42.4913793 1267.04762,44.625 1273.95238,47.2327586 C1283.2381,50.7887931 1288,55.2931034 1288,63.1163793 C1288,72.362069 1280.85714,79 1268,79 C1262.28571,79 1256.80952,77.5775862 1253,75.4439655 L1255.61905,68.0948276 Z" id="Shape"></path>
                <path d="M1344.76136,75.9047619 C1342.13636,77.0952381 1336.64773,79 1329.48864,79 C1313.5,79 1303,68.2857143 1303,52.0952381 C1303,35.9047619 1314.21591,24 1331.63636,24 C1337.36364,24 1342.375,25.4285714 1345,26.6190476 L1342.85227,34 C1340.46591,32.8095238 1336.88636,31.3809524 1331.63636,31.3809524 C1319.46591,31.3809524 1312.78409,40.4285714 1312.78409,51.3809524 C1312.78409,63.5238095 1320.65909,71.1428571 1331.39773,71.1428571 C1336.88636,71.1428571 1340.46591,69.7142857 1343.32955,68.5238095 L1344.76136,75.9047619 Z" id="Shape"></path>
                <path d="M1391.03371,77.8197425 L1390.32584,71.2103004 L1390.08989,71.2103004 C1387.25843,75.223176 1381.59551,79 1374.04494,79 C1363.42697,79 1358,71.4463519 1358,63.8927039 C1358,51.1459227 1369.32584,44.3004292 1389.61798,44.3004292 L1389.61798,43.1201717 C1389.61798,38.8712446 1388.4382,31.0815451 1377.58427,31.0815451 C1372.62921,31.0815451 1367.67416,32.4978541 1363.89888,35.0944206 L1361.77528,28.72103 C1366.02247,25.888412 1372.39326,24 1379,24 C1395.04494,24 1399.05618,34.8583691 1399.05618,45.4806867 L1399.05618,65.0729614 C1399.05618,69.5579399 1399.29213,74.0429185 1400,77.583691 L1391.03371,77.583691 L1391.03371,77.8197425 Z M1389.61798,51.1459227 C1379.23596,50.9098712 1367.20225,52.7982833 1367.20225,62.9484979 C1367.20225,69.0858369 1371.44944,72.1545064 1376.16854,72.1545064 C1383.01124,72.1545064 1387.49438,67.9055794 1388.91011,63.4206009 C1389.14607,62.4763948 1389.38202,61.2961373 1389.38202,60.3519313 L1389.38202,51.1459227 L1389.61798,51.1459227 Z" id="Shape"></path>
                <path d="M1419.47917,39.4625551 C1419.47917,33.9911894 1419.47917,29.4713656 1419,25.1894273 L1427.625,25.1894273 L1428.10417,33.9911894 L1428.34375,33.9911894 C1430.97917,28.9955947 1437.20833,24 1446.07292,24 C1453.5,24 1465,28.2819383 1465,46.3612335 L1465,78 L1455.17708,78 L1455.17708,47.5506608 C1455.17708,38.9867841 1452.0625,31.8502203 1442.71875,31.8502203 C1436.25,31.8502203 1431.21875,36.3700441 1429.78125,41.6035242 C1429.30208,42.7929515 1429.0625,44.4581498 1429.0625,46.123348 L1429.0625,77.7621145 L1419.23958,77.7621145 L1419.23958,39.4625551 L1419.47917,39.4625551 Z" id="Shape"></path>
            </g>
        </g>
    </g>
</svg>